<?xml version="1.0" encoding="utf-8"?>
<!-- Generator: Adobe Illustrator 26.0.0, SVG Export Plug-In . SVG Version: 6.00 Build 0)  -->
<svg version="1.1" id="Camada_1" xmlns="http://www.w3.org/2000/svg" xmlns:xlink="http://www.w3.org/1999/xlink" x="0px" y="0px"
	 viewBox="0 0 50 50" style="enable-background:new 0 0 50 50;" xml:space="preserve">
<style type="text/css">
	.st0{fill:#BC000A;}
	.st1{fill:#008E2B;}
	.st2{fill:#0095A5;}
	.st3{fill:#E8B100;}
</style>
<g id="Camada_2_00000087379515072949696930000010552030213885820304_">
	<g id="Camada_1-2">
		<path class="st0" d="M3.3,25.1c-1.1-2.9-1.7-6-1.7-9.1c0-4.3,2.4-12.1,11.6-12.1c4.5,0,8.7,2.1,11.5,5.7c0,0-0.1,3.4,0.7,3.4
			s1.2-1.4,2.2-1.4s1.9,1.4,1.9,3.2c0,1.4-0.7,2.7-1.7,2.7c-0.6,0-1.7-1.1-2.4-1.1c-0.7,0-0.7,1.3-0.7,1.3v7.3L3.3,25.1z"/>
		<path class="st1" d="M34.7,25.6c0,0.6,1,0.9,1,2.1s-1.5,1.7-3.2,1.7c-0.8,0-3-0.1-3-1.7c0-0.9,1.2-1.1,1.2-2.1
			c0-0.2-0.2-0.4-0.4-0.5h-5.6l0.2,6.8c0,0,0,1.5-0.6,1.7c-0.6,0.2-1.7-1-3.1-1c-1.4,0.1-1.1,1.9-1.1,2.6c0,1.5,0.5,3,1.6,3
			S23,37,23.9,37s1.1,2.2,1.1,2.2v0.6l0,0l0.3,6.3c0,0,10.6-6.6,14.3-10.3c3.1-3,5.5-6.6,7.1-10.6H35.4C35,25.2,34.7,25.4,34.7,25.6
			z"/>
		<path class="st2" d="M3.5,25.6l9.4-0.4c0,0,1.7-0.1,1.7-0.8c0-0.7-1.2-1-1.3-2.1s1.4-2,3.4-2s2.8,0.7,2.7,1.9c0,1.2-1.1,1.3-1,2
			s1.4,0.6,1.4,0.6h5l0.2,7c0,0,0,1.5-0.6,1.7c-0.6,0.2-1.8-1-3.1-1c-1.3,0.1-1.1,1.9-1.1,2.6c0,1.5,0.5,3,1.6,3
			c1,0,1.3-1.3,2.2-1.3s1.1,2.2,1.1,2.2l-0.2,6.2c0,0-9-4.5-13.8-9.2C7.9,33.2,5.3,29.6,3.5,25.6z"/>
		<path class="st3" d="M36.9,3.9c-4.7-0.3-9.3,2-11.9,6v2.7c0.1,0.2,0.2,0.4,0.4,0.4c0.7,0,1.3-1.4,2.2-1.4c0.9,0,1.9,1.4,1.9,3.2
			c0,1.4-0.7,2.7-1.7,2.7c-0.6,0-1.7-1.1-2.4-1.1c-0.2,0-0.4,0.1-0.5,0.3v8.2h3.5c0.9,0,2.4,0,2.4,0.7c0,1-1.2,1.1-1.2,2.1
			c0,1.6,2.2,1.7,3,1.7c1.7,0,3.2-0.8,3.2-1.7c0-0.9-1.1-1.4-1-2.1s1.4-0.6,1.9-0.6h10.2c1-2.8,1.5-5.7,1.6-8.6
			C48.4,12.1,45.1,3.9,36.9,3.9z"/>
	</g>
</g>
</svg>
