<svg xmlns="http://www.w3.org/2000/svg" viewBox="0 0 151.88 66.41"><defs><style>.cls-1{fill:#c02d30;}.cls-2{fill:#1e9044;}.cls-3{fill:#1b93a7;}.cls-4{fill:#eac12f;}</style></defs><g id="Camada_2" data-name="Camada 2"><g id="Camada_1-2" data-name="Camada 1"><path d="M10,.45,0,23.07H6.53L8.3,18.65h9.57l1.78,4.42H26.3L16.29.45ZM10.19,14l2.9-7.23L16,14Z"/><path d="M47.26,13.25a7.91,7.91,0,0,0,1.21-4.46,8,8,0,0,0-1.21-4.44,7.78,7.78,0,0,0-3.47-2.9,13.33,13.33,0,0,0-5.37-1H28.11V23.07h6.4v-6H38l4.1,6h6.85L44,16A7.6,7.6,0,0,0,47.26,13.25ZM41,6.38a3.07,3.07,0,0,1,1,2.41,3.09,3.09,0,0,1-1,2.46,4.49,4.49,0,0,1-3,.87H34.51V5.49H38A4.43,4.43,0,0,1,41,6.38Z"/><polygon points="49.86 5.53 56.81 5.53 56.81 23.07 63.21 23.07 63.21 5.53 70.12 5.53 70.12 0.45 49.86 0.45 49.86 5.53"/><rect x="72.55" y="0.45" width="6.4" height="22.62"/><path d="M89.38,7.06a5.56,5.56,0,0,1,2-1.31,7.48,7.48,0,0,1,2.65-.45,7.1,7.1,0,0,1,3,.61,7.73,7.73,0,0,1,2.5,1.91l4.07-3.68a10.59,10.59,0,0,0-4.17-3.07A15.53,15.53,0,0,0,88.7.86a12,12,0,0,0-4,2.42A10.94,10.94,0,0,0,82.08,7a11.78,11.78,0,0,0-.94,4.75,11.71,11.71,0,0,0,.94,4.75,11,11,0,0,0,2.62,3.74,11.9,11.9,0,0,0,3.94,2.42,14,14,0,0,0,5,.86,17.57,17.57,0,0,0,5-.75,15,15,0,0,0,4.51-2.13V11.28H97.43V17.5c-.22.1-.43.18-.65.26a8.5,8.5,0,0,1-2.78.47,7.07,7.07,0,0,1-2.6-.47,5.83,5.83,0,0,1-2-1.33,6.11,6.11,0,0,1-1.31-2,7.18,7.18,0,0,1-.47-2.62,7.26,7.26,0,0,1,.47-2.65A6.21,6.21,0,0,1,89.38,7.06Z"/><path d="M126.93,3.33a11.77,11.77,0,0,0-4-2.46,14.86,14.86,0,0,0-10,0,11.58,11.58,0,0,0-6.61,6.21,11.34,11.34,0,0,0-1,4.65,11.54,11.54,0,0,0,1,4.7A11.51,11.51,0,0,0,113,22.65a14.64,14.64,0,0,0,10,0,12.09,12.09,0,0,0,4-2.45,11.08,11.08,0,0,0,2.63-3.74,11.61,11.61,0,0,0,.94-4.73,11.49,11.49,0,0,0-1-4.69A11.53,11.53,0,0,0,126.93,3.33Zm-3.34,11.1a6.26,6.26,0,0,1-1.3,2,5.34,5.34,0,0,1-1.93,1.31,6.54,6.54,0,0,1-4.82,0,5.59,5.59,0,0,1-2-1.31,5.8,5.8,0,0,1-1.3-2,7.48,7.48,0,0,1-.45-2.67,7.38,7.38,0,0,1,.45-2.66,5.84,5.84,0,0,1,1.3-2,5.73,5.73,0,0,1,2-1.31,6.68,6.68,0,0,1,4.82,0,5.47,5.47,0,0,1,1.93,1.31,6.3,6.3,0,0,1,1.3,2,7.17,7.17,0,0,1,.47,2.66A7.26,7.26,0,0,1,123.59,14.43Z"/><path d="M150.52,13.27a5.58,5.58,0,0,0-1.86-1.91,10.58,10.58,0,0,0-2.5-1.16,27.57,27.57,0,0,0-2.73-.73c-.92-.2-1.75-.38-2.51-.57a6.48,6.48,0,0,1-1.84-.71A1.35,1.35,0,0,1,138.37,7a1.54,1.54,0,0,1,.36-1,2.45,2.45,0,0,1,1.16-.74A6.28,6.28,0,0,1,142,5a11.93,11.93,0,0,1,3.07.42,13.9,13.9,0,0,1,3.2,1.32L150.23,2a13,13,0,0,0-3.8-1.5,19.4,19.4,0,0,0-4.37-.5,13.52,13.52,0,0,0-5.56,1,7.58,7.58,0,0,0-3.33,2.65,6.47,6.47,0,0,0-1.1,3.65,6,6,0,0,0,.69,3,5.87,5.87,0,0,0,1.83,1.94,10.45,10.45,0,0,0,2.52,1.19,23.11,23.11,0,0,0,2.73.73c.9.18,1.72.38,2.49.58a7.11,7.11,0,0,1,1.86.75,1.33,1.33,0,0,1,.71,1.17,1.51,1.51,0,0,1-.37,1,2.41,2.41,0,0,1-1.17.64,8.08,8.08,0,0,1-2.15.23,13,13,0,0,1-4-.63,14.55,14.55,0,0,1-3.51-1.6l-2.1,4.75a14,14,0,0,0,4.15,1.76,20.72,20.72,0,0,0,5.38.7,13.6,13.6,0,0,0,5.59-1,7.64,7.64,0,0,0,3.35-2.66,6.42,6.42,0,0,0,1.11-3.64A5.56,5.56,0,0,0,150.52,13.27Z"/><polygon points="53.28 39.26 64.03 39.26 64.03 66.41 73.93 66.41 73.93 39.26 84.63 39.26 84.63 31.41 53.28 31.41 53.28 39.26"/><polygon points="97.28 31.41 87.38 31.41 87.38 66.41 113.93 66.41 113.93 58.56 97.28 58.56 97.28 31.41"/><polygon points="140.38 66.41 151.88 66.41 136.86 46.92 151.08 31.41 140.23 31.41 126.68 45.95 126.68 31.41 116.93 31.41 116.93 66.41 126.68 66.41 126.68 57.64 130.35 53.7 140.38 66.41"/><path class="cls-1" d="M4.39,49A20.19,20.19,0,0,1,3,41.44c.07-3.6,2-10,9.59-10a11.9,11.9,0,0,1,9.52,4.71s-.11,2.81.61,2.8,1-1.13,1.8-1.13,1.58,1.17,1.58,2.65c0,1.17-.62,2.23-1.37,2.21-.54,0-1.43-.92-2-.9s-.57,1.06-.57,1.06l.05,6Z"/><path class="cls-2" d="M30.48,49.42c0,.54.87.77.86,1.7s-1.21,1.44-2.63,1.44c-.68,0-2.47-.11-2.47-1.44,0-.78,1-.91,1-1.7,0-.19-.15-.32-.37-.42H22.28l.12,5.65s0,1.26-.52,1.39-1.49-.85-2.54-.79-.93,1.55-.93,2.14c0,1.24.45,2.48,1.29,2.51s1.1-1.09,1.84-1.09.86,1.84.86,1.84v.51h0l.26,5.25s8.82-5.47,11.86-8.56A25.36,25.36,0,0,0,40.39,49l-9.33,0c-.32.09-.58.21-.58.41"/><path class="cls-3" d="M4.56,49.42l7.79-.31s1.35-.07,1.35-.66-1-.83-1-1.73c0-1.06,1.17-1.66,2.87-1.66s2.29.59,2.28,1.61-.88,1.08-.86,1.68,1.2.53,1.2.53l4.14,0,.12,5.81s0,1.26-.52,1.39-1.49-.85-2.54-.79-.93,1.55-.93,2.14c0,1.24.45,2.48,1.29,2.51s1.1-1.09,1.84-1.09.86,1.84.86,1.84l-.12,5.16s-7.38-3.64-11.36-7.54a28.89,28.89,0,0,1-6.36-8.85"/><path class="cls-4" d="M32.23,31.41c-7.15,0-9.83,4.93-9.83,4.93v2.27c.09.19.2.31.35.31.61,0,1-1.13,1.8-1.13s1.58,1.17,1.58,2.65c0,1.17-.62,2.23-1.37,2.21-.54,0-1.43-.92-2-.9a.5.5,0,0,0-.4.24v6.83l2.91,0c.74,0,1.94.08,2,.62,0,.79-1,.92-1,1.7,0,1.33,1.79,1.44,2.47,1.44,1.42,0,2.62-.63,2.63-1.44s-.86-1.16-.86-1.7,1.17-.53,1.58-.53c2.07,0,8.38,0,8.38,0a22.13,22.13,0,0,0,1.28-7.15c0-3.58-2.67-10.35-9.49-10.35"/></g></g></svg>